<svg display="none" xmlns="http://www.w3.org/2000/svg">
<symbol id="l9p1" width="470" height="419" viewBox="0 0 470 419" fill="none">
<g filter="url(#filter0_f_1_335)">
<path d="M-15.8073 69.084C27.6173 28.6585 66.8794 13.7278 126.193 15.084C170.889 16.106 334.81 26.4262 348.193 69.0841C361.231 110.646 275.709 106.412 283.693 149.233C293.921 204.095 427.273 154.995 448.193 206.733C459.882 235.644 462.693 310.084 379.193 319.084C317.765 325.705 211.693 226.584 173.693 266.084C135.693 305.584 162.802 340 126.193 392.584C98.6927 432.084 24.2493 348.75 -1.30731 326.584C-38.3227 294.48 -22.631 228.105 -15.8073 179.584" stroke="#00B3FF" stroke-opacity="0.55" stroke-width="10"/>
</g>
<g filter="url(#filter1_f_1_335)">
<path d="M-44.3368 104.911C-20.2176 75.8568 -2.54889 150.471 35.0005 146.5C63.2961 143.507 133 104.911 185.422 75.2839C209.559 61.6426 249.975 63.618 258.5 90.0001C269.422 123.8 236.76 122.729 229.5 157.5C220 203 324 188.5 324 233.5C324 323.311 149 147 86 212.5C23 278 150.187 254.5 114.5 309.5C78.8128 364.5 -23.8576 284.685 -23.5 253.5" stroke="#00B3FF" stroke-opacity="0.17" stroke-width="10"/>
</g>
</symbol>
</svg>



<svg display="none" xmlns="http://www.w3.org/2000/svg">
<symbol id="l9p3"  width="576" height="266" viewBox="0 0 576 266" fill="none">
<g filter="url(#filter0_f_1_351)">
<path d="M678.795 359.441C635.462 401.225 596.233 416.709 536.917 415.44C492.219 414.484 291.5 503 291.5 425C291.5 385.059 331.5 389.499 300.5 326.499C269.5 263.499 37.5366 291.059 16.5003 237.749C4.74537 207.959 98.3813 94.3896 181.861 84.9252C243.273 77.9627 417.5 169.5 463 149C508.5 128.5 499.574 80.4431 536.064 26.1347C563.475 -14.6608 638.107 71.1164 663.713 93.9195C700.801 126.947 685.259 195.432 678.545 245.485" stroke="#00B3FF" stroke-opacity="0.55" stroke-width="10"/>
</g>
<g filter="url(#filter1_f_1_351)">
<path d="M631 272.5C631 272.5 375 476.441 375 398.441C375 358.501 444 356.5 413 293.5C382 230.5 175.512 274.06 154.476 220.75C142.721 190.961 175.986 156 260 156C315.5 156 395.999 251.001 484 203.501C572 156 570 79.5 673 156" stroke="#00B3FF" stroke-opacity="0.17" stroke-width="10"/>
</g>
<defs>
<filter id="filter0_f_1_351" x="0.496094" y="0.287231" width="702.06" height="471.875" filterUnits="userSpaceOnUse" color-interpolation-filters="sRGB">
<feFlood flood-opacity="0" result="BackgroundImageFix"/>
<feBlend mode="normal" in="SourceGraphic" in2="BackgroundImageFix" result="shape"/>
<feGaussianBlur stdDeviation="5" result="effect1_foregroundBlur_1_351"/>
</filter>
<filter id="filter1_f_1_351" x="137.174" y="108.537" width="548.808" height="322.68" filterUnits="userSpaceOnUse" color-interpolation-filters="sRGB">
<feFlood flood-opacity="0" result="BackgroundImageFix"/>
<feBlend mode="normal" in="SourceGraphic" in2="BackgroundImageFix" result="shape"/>
<feGaussianBlur stdDeviation="5" result="effect1_foregroundBlur_1_351"/>
</filter>
</defs>
</symbol>

<svg display="none" xmlns="http://www.w3.org/2000/svg">
<symbol ib="l9p01" width="576" height="266" viewBox="0 0 576 266" fill="none">
<g filter="url(#filter0_f_22_337)">
<path d="M-60.7926 -3.91595C-17.3681 -44.3415 21.894 -59.2722 81.2074 -57.916C125.903 -56.894 289.825 -46.5738 303.207 -3.91594C316.246 37.646 230.724 33.4117 238.707 76.233C248.936 131.095 382.288 81.9952 403.207 133.733C414.897 162.644 417.707 237.084 334.207 246.084C272.78 252.705 166.707 153.584 128.707 193.084C90.7075 232.584 117.816 267 81.2074 319.584C53.7074 359.084 -20.7361 275.75 -46.2927 253.584C-83.3081 221.48 -67.6164 155.105 -60.7926 106.584" stroke="#00B3FF" stroke-opacity="0.55" stroke-width="10"/>
</g>
<g filter="url(#filter1_f_22_337)">
<path d="M-89.3221 31.9107C-65.203 2.85676 -47.5342 77.4715 -9.98488 73.5C18.3108 70.5072 88.0149 31.9108 140.437 2.2839C164.574 -11.3574 204.99 -9.38199 213.515 17.0001C224.437 50.8002 191.775 49.7293 184.515 84.5001C175.015 130 279.015 115.5 279.015 160.5C279.015 250.311 104.015 74 41.0146 139.5C-21.9853 205 105.202 181.5 69.5147 236.5C33.8274 291.5 -68.8429 211.685 -68.4854 180.5" stroke="#00B3FF" stroke-opacity="0.17" stroke-width="10"/>
</g>
</symbol>

<svg  id="lapi1" width="604" height="473" viewBox="0 0 604 473" fill="none" xmlns="http://www.w3.org/2000/svg">
<g filter="url(#filter0_f_1_351)">
<path d="M678.795 359.441C635.462 401.225 596.233 416.709 536.917 415.44C492.219 414.484 291.5 503 291.5 425C291.5 385.059 331.5 389.499 300.5 326.499C269.5 263.499 37.5366 291.059 16.5003 237.749C4.74537 207.959 98.3813 94.3896 181.861 84.9252C243.273 77.9627 417.5 169.5 463 149C508.5 128.5 499.574 80.4431 536.064 26.1347C563.475 -14.6608 638.107 71.1164 663.713 93.9195C700.801 126.947 685.259 195.432 678.545 245.485" stroke="#00B3FF" stroke-opacity="0.55" stroke-width="10"/>
</g>
<g filter="url(#filter1_f_1_351)">
<path d="M631 272.5C631 272.5 375 476.441 375 398.441C375 358.501 444 356.5 413 293.5C382 230.5 175.512 274.06 154.476 220.75C142.721 190.961 175.986 156 260 156C315.5 156 395.999 251.001 484 203.501C572 156 570 79.5 673 156" stroke="#00B3FF" stroke-opacity="0.17" stroke-width="10"/>
</g>
<defs>
<filter id="filter0_f_1_351" x="0.496094" y="0.287231" width="702.06" height="471.875" filterUnits="userSpaceOnUse" color-interpolation-filters="sRGB">
<feFlood flood-opacity="0" result="BackgroundImageFix"/>
<feBlend mode="normal" in="SourceGraphic" in2="BackgroundImageFix" result="shape"/>
<feGaussianBlur stdDeviation="5" result="effect1_foregroundBlur_1_351"/>
</filter>
<filter id="filter1_f_1_351" x="137.174" y="108.537" width="548.808" height="322.68" filterUnits="userSpaceOnUse" color-interpolation-filters="sRGB">
<feFlood flood-opacity="0" result="BackgroundImageFix"/>
<feBlend mode="normal" in="SourceGraphic" in2="BackgroundImageFix" result="shape"/>
<feGaussianBlur stdDeviation="5" result="effect1_foregroundBlur_1_351"/>
</filter>
</defs>
</svg>




</svg>


